<svg width="14" height="14" viewBox="0 0 14 14" fill="none" xmlns="http://www.w3.org/2000/svg">
<path d="M7 1.75C7.41421 1.75 7.75 1.41421 7.75 1C7.75 0.585787 7.41421 0.250001 7 0.250001V1.75ZM13.75 7C13.75 6.58579 13.4142 6.25 13 6.25C12.5858 6.25 12.25 6.58579 12.25 7H13.75ZM13.0001 1.75C13.4143 1.75 13.7501 1.41421 13.7501 1C13.7501 0.585786 13.4143 0.25 13.0001 0.25V1.75ZM9.49609 0.25C9.08188 0.25 8.74609 0.585786 8.74609 1C8.74609 1.41421 9.08188 1.75 9.49609 1.75V0.25ZM13.7504 1C13.7504 0.585787 13.4146 0.250001 13.0004 0.250001C12.5862 0.250001 12.2504 0.585787 12.2504 1H13.7504ZM12.2504 4.54943C12.2504 4.96364 12.5862 5.29943 13.0004 5.29943C13.4146 5.29943 13.7504 4.96364 13.7504 4.54943H12.2504ZM13.5303 1.53033C13.8232 1.23744 13.8232 0.762564 13.5303 0.469671C13.2374 0.176778 12.7626 0.176778 12.4697 0.469671L13.5303 1.53033ZM6.46967 6.46967C6.17678 6.76256 6.17678 7.23744 6.46967 7.53033C6.76256 7.82322 7.23744 7.82322 7.53033 7.53033L6.46967 6.46967ZM7 0.250001H4.42857V1.75H7V0.250001ZM4.42857 0.250001C2.12081 0.250001 0.25 2.12081 0.25 4.42857H1.75C1.75 2.94924 2.94924 1.75 4.42857 1.75V0.250001ZM0.25 4.42857V9.57143H1.75V4.42857H0.25ZM0.25 9.57143C0.25 11.8792 2.12081 13.75 4.42857 13.75V12.25C2.94924 12.25 1.75 11.0508 1.75 9.57143H0.25ZM4.42857 13.75H9.57143V12.25H4.42857V13.75ZM9.57143 13.75C11.8792 13.75 13.75 11.8792 13.75 9.57143H12.25C12.25 11.0508 11.0508 12.25 9.57143 12.25V13.75ZM13.75 9.57143V7H12.25V9.57143H13.75ZM13.0001 0.25H9.49609V1.75H13.0001V0.25ZM12.2504 1V4.54943H13.7504V1H12.2504ZM12.4697 0.469671L6.46967 6.46967L7.53033 7.53033L13.5303 1.53033L12.4697 0.469671Z" fill="#FFFEED"/>
</svg>
