<svg width="14" height="15" viewBox="0 0 14 15" fill="none" xmlns="http://www.w3.org/2000/svg">
<path d="M5.82147 3.10653C5.55641 3.3716 5.55641 3.80134 5.82147 4.0664C6.08645 4.33146 6.51622 4.33146 6.78128 4.0664L5.82147 3.10653ZM8.35746 1.53038L8.83737 2.01031L8.35746 1.53038ZM12.4696 1.53038L11.9897 2.01031L12.4696 1.53038ZM12.4696 5.64256L11.9897 5.16262L12.4696 5.64256ZM9.93364 7.21874C9.66858 7.48381 9.66858 7.91349 9.93364 8.17855C10.1986 8.44362 10.6284 8.44362 10.8935 8.17855L9.93364 7.21874ZM8.15222 10.9216C8.41737 10.6566 8.41746 10.2269 8.1524 9.96179C7.88742 9.69663 7.45765 9.69654 7.19259 9.96152L8.15222 10.9216ZM5.61632 12.4968L6.09016 12.9827L6.09613 12.9768L5.61632 12.4968ZM1.53059 12.4713L1.0507 12.9512L1.53059 12.4713ZM1.50413 8.38552L1.02416 7.90552L1.01808 7.91177L1.50413 8.38552ZM4.04014 6.80933C4.30521 6.54427 4.30521 6.11459 4.04014 5.84953C3.77509 5.58446 3.34535 5.58446 3.08028 5.84953L4.04014 6.80933ZM9.52424 5.4365C9.7893 5.17146 9.7893 4.74172 9.52424 4.47666C9.25917 4.2116 8.8294 4.2116 8.56443 4.47666L9.52424 5.4365ZM4.45221 8.58886C4.18716 8.85393 4.18716 9.28361 4.45221 9.54867C4.71728 9.81374 5.14702 9.81374 5.41207 9.54867L4.45221 8.58886ZM6.78128 4.0664L8.83737 2.01031L7.87756 1.05045L5.82147 3.10653L6.78128 4.0664ZM8.83737 2.01031C9.70785 1.13983 11.1192 1.13983 11.9897 2.01031L12.9495 1.05045C11.5489 -0.35015 9.27808 -0.35015 7.87756 1.05045L8.83737 2.01031ZM11.9897 2.01031C12.8602 2.8808 12.8602 4.29214 11.9897 5.16262L12.9495 6.12246C14.3502 4.72188 14.3502 2.45106 12.9495 1.05045L11.9897 2.01031ZM11.9897 5.16262L9.93364 7.21874L10.8935 8.17855L12.9495 6.12246L11.9897 5.16262ZM7.19259 9.96152L5.13648 12.0167L6.09613 12.9768L8.15222 10.9216L7.19259 9.96152ZM5.14247 12.0108C4.26902 12.8625 2.87319 12.8538 2.01047 11.9913L1.0507 12.9512C2.43884 14.339 4.68475 14.3531 6.09016 12.9827L5.14247 12.0108ZM2.01047 11.9913C1.14774 11.1287 1.1387 9.73283 1.99019 8.85927L1.01808 7.91177C-0.351968 9.31745 -0.337425 11.5634 1.0507 12.9512L2.01047 11.9913ZM1.98406 8.86542L4.04014 6.80933L3.08028 5.84953L1.0242 7.90561L1.98406 8.86542ZM8.56443 4.47666L4.45221 8.58886L5.41207 9.54867L9.52424 5.4365L8.56443 4.47666Z" fill="#FFFEED"/>
</svg>
